<svg width="24" height="39" viewBox="0 0 24 39" fill="none" xmlns="http://www.w3.org/2000/svg">
<path fill-rule="evenodd" clip-rule="evenodd" d="M12.0298 38.9999C14.1831 31.5692 18.4683 33.0267 22.1223 30.0925C24.4966 28.3685 24.3966 26.3185 23.056 24.1106L18.4771 17.1903C25.0629 17.7094 24.8074 10.1362 20.5147 10.144C22.5585 6.73191 18.7092 2.78428 15.7658 5.09723C15.7486 1.65219 13.7113 0.352725 11.9244 0.362358C9.73677 0.377847 7.83498 2.33078 7.99474 5.12536C5.03528 2.84377 1.52354 6.43261 3.15737 10.144C-1.01882 10.32 -1.17013 17.454 5.02644 17.2149L1.21271 23.5264C-0.853018 26.7176 -0.211285 28.9777 2.6171 30.639C9.21534 33.7079 9.97714 33.467 12.0299 38.9999H12.0298Z" fill="#FEFEFE"/>
<path fill-rule="evenodd" clip-rule="evenodd" d="M11.8776 1.4834C10.1304 1.4834 9.08972 3.13649 9.096 4.97445C9.11398 6.584 10.4647 8.27878 10.6274 9.80025C10.7756 11.2401 10.5379 12.426 9.89764 12.495C9.32823 12.5661 8.38443 11.551 8.38443 8.75825C8.38443 6.61113 6.81424 4.74381 5.10531 5.82296C3.88711 6.59086 3.42466 8.29019 4.32273 9.87963C4.86571 10.8269 6.00322 11.3816 6.67712 12.1601C7.45311 13.0687 7.57581 14.2994 7.11352 14.5545C6.61573 14.8372 5.3549 13.6795 4.58039 12.1863C4.08415 11.2228 2.51768 10.816 1.77068 12.0112C0.34971 14.3067 2.42156 15.8539 3.78192 16.0383C5.85199 16.333 8.40396 15.5899 11.8774 15.5899C15.3637 15.5899 17.926 16.333 19.9972 16.0383C21.3567 15.8539 23.4299 14.3067 22.0058 12.0112C21.2588 10.8161 19.6939 11.2228 19.1955 12.1863C18.4243 13.6795 17.1603 14.8371 16.6546 14.5545C16.1923 14.2995 16.3261 13.0688 17.0984 12.1601C17.7742 11.3816 18.9021 10.827 19.4447 9.87963C20.3518 8.29019 19.8904 6.59078 18.6716 5.82296C16.9556 4.74381 15.3926 6.6112 15.3926 8.75825C15.3926 11.5509 14.4399 12.5661 13.8702 12.495C13.2401 12.4259 12.9923 11.2401 13.1431 9.80025C13.3034 8.27878 14.6636 6.584 14.6721 4.97445C14.6899 3.13649 13.649 1.4834 11.8775 1.4834H11.8776Z" fill="#FF0000"/>
<path d="M16.9043 16.8527C17.1783 17.1718 22.1579 24.6304 22.5217 25.5929C22.8875 26.5477 22.9837 27.4051 22.6025 27.9992C22.3459 28.4141 22.015 28.7668 21.6331 29.0743C21.2592 29.3948 20.8339 29.658 20.3705 29.9067C19.9079 30.1538 19.4101 30.3852 18.904 30.6046C18.3875 30.8179 17.8634 31.0372 17.3312 31.2666C16.8062 31.5063 16.2719 31.7546 15.7564 32.0356C15.2404 32.3192 14.7354 32.6287 14.2712 33.0005C13.8005 33.3716 13.3669 33.7958 12.9733 34.2989C12.5903 34.7945 12.2437 35.359 11.977 36.0229C11.7003 35.359 11.3628 34.7945 10.982 34.2989C10.6083 33.7957 10.172 33.3716 9.70958 33.0005C9.24713 32.6287 8.74949 32.3192 8.23442 32.0356C7.71826 31.7546 7.18621 31.5062 6.65974 31.2666C6.12737 31.0372 5.59323 30.8179 5.08738 30.5969C4.57316 30.3852 4.07273 30.1538 3.61191 29.9067C3.14916 29.658 2.72415 29.3947 2.34023 29.0743C1.96817 28.7668 1.63711 28.4141 1.37209 27.9992C1.00064 27.4051 1.06064 26.5477 1.38767 25.5853C1.71857 24.6304 6.33178 17.2151 6.58966 16.9065C6.65974 16.826 9.27511 16.3496 11.871 16.3496C14.4747 16.3496 16.8315 16.7823 16.9043 16.8528V16.8527Z" fill="#FFE100"/>
<path d="M14.3439 18.4871C13.2936 19.2655 12.3785 20.2821 11.7824 21.7227C11.1781 20.2821 10.2798 19.2655 9.23047 18.4965C10.1374 18.8235 10.9213 18.0294 11.7824 18.0294C12.6373 18.019 13.5533 18.8234 14.3439 18.4871Z" fill="#FF0000"/>
<path fill-rule="evenodd" clip-rule="evenodd" d="M8.16533 28.4834C8.11022 28.4583 8.0582 28.4375 7.96852 28.4375C7.85241 28.4375 7.77381 28.4918 7.69149 28.5619V28.4663H7.22168V30.0655H7.69149V29.0306C7.70939 28.9155 7.78218 28.8733 7.86899 28.8733C7.95922 28.8733 8.01193 28.9088 8.07611 28.9692L8.16533 28.4834Z" fill="#FF0000"/>
<path fill-rule="evenodd" clip-rule="evenodd" d="M8.8839 28.4375C8.49153 28.4375 8.2793 28.7313 8.2793 29.2778C8.2793 29.7828 8.48269 30.0995 8.8839 30.0995V29.729C8.7874 29.7219 8.73337 29.6414 8.72438 29.402H8.8839V29.0921H8.72438C8.73337 28.8646 8.77678 28.7922 8.87584 28.7922H8.8839V28.4375ZM8.8839 30.0995C9.15977 30.0995 9.31162 29.9684 9.44487 29.7751L9.16876 29.5515C9.07071 29.6945 9.0004 29.729 8.91072 29.729H8.8839V30.0995ZM9.47099 29.4019V29.2887C9.47099 28.7238 9.26728 28.4375 8.8839 28.4375V28.7922C8.99141 28.7922 9.03474 28.8811 9.04435 29.0921H8.8839V29.402H9.47099V29.4019Z" fill="#FF0000"/>
<path fill-rule="evenodd" clip-rule="evenodd" d="M10.2797 28.4759C10.2363 28.4916 10.1922 28.5265 10.146 28.5615V28.4659H9.68359V30.6487L10.146 30.4711V29.9773C10.1922 30.0118 10.2363 30.0402 10.2797 30.0651V29.702C10.2249 29.702 10.1922 29.6771 10.146 29.6489V28.8903C10.1922 28.8541 10.2249 28.829 10.2797 28.829V28.4759V28.4759ZM10.8756 29.2617C10.8756 28.7045 10.7241 28.437 10.4474 28.437C10.3866 28.437 10.3318 28.448 10.2797 28.4759V28.8289H10.2873C10.3775 28.8289 10.4128 28.8902 10.4128 29.2696C10.4128 29.6489 10.3775 29.702 10.2873 29.702H10.2797V30.0651C10.3318 30.0825 10.3776 30.099 10.4392 30.099C10.7241 30.099 10.8756 29.8357 10.8756 29.2618V29.2617Z" fill="#FF0000"/>
<path fill-rule="evenodd" clip-rule="evenodd" d="M12.2795 30.0654V28.4659H11.8085V29.6411C11.7639 29.6771 11.7299 29.6942 11.6665 29.6942C11.5872 29.6942 11.5499 29.6411 11.5499 29.5165V28.4658H11.0811V29.5966C11.0811 29.9431 11.2152 30.0992 11.4796 30.0992C11.6316 30.0992 11.73 30.0486 11.8086 29.9774V30.0652H12.2796L12.2795 30.0654Z" fill="#FF0000"/>
<path fill-rule="evenodd" clip-rule="evenodd" d="M13.134 28.4758C13.0903 28.4916 13.0444 28.5265 13.0015 28.5615V27.8462L12.5293 28.0323V30.065H13.0015V29.9772C13.0444 30.0117 13.0903 30.0402 13.134 30.065V29.702C13.08 29.702 13.0364 29.677 13.0015 29.6489V28.8902C13.0444 28.8541 13.0799 28.8289 13.134 28.8289V28.4758ZM13.7395 29.2617C13.7395 28.7045 13.5792 28.437 13.304 28.437C13.2406 28.437 13.1874 28.448 13.134 28.4758V28.8289H13.1437C13.2226 28.8289 13.2685 28.8902 13.2685 29.2696C13.2685 29.6489 13.2225 29.702 13.1437 29.702H13.134V30.0651C13.1789 30.0825 13.2317 30.099 13.2933 30.099C13.5791 30.099 13.7395 29.8357 13.7395 29.2618V29.2617Z" fill="#FF0000"/>
<path fill-rule="evenodd" clip-rule="evenodd" d="M14.4316 30.0655V27.8467L13.9609 28.0325V30.0655H14.4316Z" fill="#FF0000"/>
<path fill-rule="evenodd" clip-rule="evenodd" d="M15.1691 28.4662H14.6986V30.0657H15.1691V28.4662ZM15.1959 28.0759C15.1959 27.9349 15.0907 27.8389 14.9285 27.8389C14.7799 27.8389 14.6641 27.9348 14.6641 28.0759C14.6641 28.2271 14.7799 28.3247 14.9285 28.3247C15.0907 28.3247 15.1959 28.227 15.1959 28.0759Z" fill="#FF0000"/>
<path fill-rule="evenodd" clip-rule="evenodd" d="M16.5465 29.6329L16.2011 29.4569C16.1308 29.6491 16.085 29.7024 16.0152 29.7024C15.8992 29.7024 15.8516 29.5968 15.8516 29.2699C15.8516 28.9427 15.8992 28.8294 16.0038 28.8294C16.094 28.8294 16.1192 28.8905 16.166 29.0744L16.5402 28.8989C16.4504 28.6255 16.3057 28.4375 16.0038 28.4375C15.5962 28.4375 15.3818 28.7132 15.3818 29.2699C15.3818 29.8455 15.6225 30.0994 15.9936 30.0994C16.272 30.0994 16.4331 29.9491 16.5465 29.6329Z" fill="#FF0000"/>
<path fill-rule="evenodd" clip-rule="evenodd" d="M6.30596 26.5932L5.70329 26.2834C5.59376 26.626 5.51501 26.7175 5.39091 26.7175C5.19542 26.7175 5.11341 26.5289 5.11341 25.9813C5.11341 25.4167 5.18449 25.2212 5.37262 25.2212C5.52462 25.2212 5.57555 25.3286 5.64872 25.6464L6.28836 25.3481C6.13767 24.8679 5.88769 24.5591 5.38099 24.5591C4.66949 24.5591 4.32324 25.0282 4.32324 25.9813C4.32324 26.9542 4.72445 27.3867 5.36378 27.3867C5.83537 27.3867 6.10148 27.1423 6.30588 26.5932H6.30596Z" fill="#FF0000"/>
<path fill-rule="evenodd" clip-rule="evenodd" d="M8.67926 27.3257V25.4078C8.67926 24.8237 8.43966 24.5594 7.98559 24.5594C7.71833 24.5594 7.56981 24.6477 7.42494 24.7709V23.5601L6.625 23.8703V27.3258H7.42494V25.3482C7.49664 25.2846 7.57555 25.2402 7.67414 25.2402C7.80855 25.2402 7.8687 25.3364 7.8687 25.5428V27.3258H8.67926V27.3257Z" fill="#FF0000"/>
<path fill-rule="evenodd" clip-rule="evenodd" d="M9.90704 24.612H9.10726V27.3258H9.90704V24.612ZM9.95928 23.9495C9.95928 23.7119 9.77356 23.5415 9.50583 23.5415C9.24089 23.5415 9.05176 23.7119 9.05176 23.9495C9.05176 24.196 9.24089 24.3571 9.50583 24.3571C9.77356 24.3571 9.95928 24.196 9.95928 23.9495Z" fill="#FF0000"/>
<path fill-rule="evenodd" clip-rule="evenodd" d="M12.2438 26.5932L11.6481 26.2834C11.5406 26.626 11.462 26.7175 11.3283 26.7175C11.1421 26.7175 11.0635 26.5289 11.0635 25.9813C11.0635 25.4167 11.1308 25.2212 11.3191 25.2212C11.4716 25.2212 11.5225 25.3286 11.5961 25.6464L12.2356 25.3481C12.0836 24.8679 11.8367 24.5591 11.3283 24.5591C10.6247 24.5591 10.2705 25.0282 10.2705 25.9813C10.2705 26.9542 10.6714 27.3867 11.3115 27.3867C11.7818 27.3867 12.0491 27.1423 12.2439 26.5932H12.2438Z" fill="#FF0000"/>
<path fill-rule="evenodd" clip-rule="evenodd" d="M14.6987 27.3258L14.122 25.4611L14.6806 24.6122H13.8268L13.711 24.8154C13.5619 25.0817 13.4275 25.3536 13.3465 25.5141C13.3669 25.329 13.3735 25.0192 13.3735 24.8087V23.5601L12.5732 23.8703V27.3258H13.3735V26.4407L13.5351 26.1692L13.853 27.3258H14.6987H14.6987Z" fill="#FF0000"/>
<path fill-rule="evenodd" clip-rule="evenodd" d="M15.9255 24.5596C15.2681 24.5596 14.9023 25.0539 14.9023 25.9816C14.9023 26.8486 15.25 27.387 15.9255 27.387V26.7621C15.7742 26.7435 15.6681 26.603 15.6498 26.2033H15.9255V25.6844H15.6498C15.6757 25.2848 15.757 25.1588 15.9165 25.1588H15.9255V24.5596ZM15.9255 27.387H15.9344C16.3974 27.387 16.6554 27.166 16.8877 26.8311L16.4149 26.4599C16.2456 26.6897 16.1315 26.7621 15.97 26.7621H15.9256V27.387H15.9255ZM16.9316 26.2033V26.0083C16.9316 25.037 16.5856 24.5596 15.9343 24.5596H15.9254V25.1587C16.1125 25.1587 16.1846 25.312 16.2014 25.6843H15.9254V26.2032H16.9316L16.9316 26.2033Z" fill="#FF0000"/>
<path fill-rule="evenodd" clip-rule="evenodd" d="M19.3394 27.3259V25.4079C19.3394 24.8238 19.0988 24.5596 18.6467 24.5596C18.3876 24.5596 18.2283 24.6478 18.0863 24.771V24.6123H17.2852V27.3259H18.0863V25.3484C18.157 25.2847 18.2363 25.2403 18.3348 25.2403C18.4681 25.2403 18.5411 25.3366 18.5411 25.5429V27.3259H19.3395L19.3394 27.3259Z" fill="#FF0000"/>
</svg>
