<svg width="24" height="24" viewBox="0 0 24 24" fill="none" xmlns="http://www.w3.org/2000/svg">
<path d="M12 22.25C6.34614 22.25 1.75 17.6539 1.75 12C1.75 6.34614 6.34614 1.75 12 1.75C17.6539 1.75 22.25 6.34614 22.25 12C22.25 17.6539 17.6539 22.25 12 22.25ZM12 2.25C6.62386 2.25 2.25 6.62386 2.25 12C2.25 17.3761 6.62386 21.75 12 21.75C17.3761 21.75 21.75 17.3761 21.75 12C21.75 6.62386 17.3761 2.25 12 2.25Z" fill="#121212" stroke="#121212"/>
<path d="M15.607 15.4037L15.5966 15.3968L15.5859 15.3904L12.4861 13.5405C12.486 13.5405 12.4859 13.5404 12.4859 13.5404C11.8674 13.1708 11.3896 12.3241 11.3896 11.6098V7.50977C11.3896 7.37591 11.5058 7.25977 11.6396 7.25977C11.7735 7.25977 11.8896 7.37591 11.8896 7.50977V11.6098C11.8896 11.9081 12.0062 12.2175 12.1438 12.4595C12.2805 12.6998 12.4865 12.9589 12.7456 13.1104L15.8434 14.9591L15.8434 14.9591L15.8477 14.9617C15.9561 15.0249 16.0037 15.1701 15.9315 15.3013C15.8724 15.3911 15.7847 15.4298 15.7096 15.4298C15.6831 15.4298 15.6632 15.4267 15.6483 15.4226C15.6339 15.4187 15.6207 15.4129 15.607 15.4037Z" fill="#121212" stroke="#121212"/>
</svg>
