<svg width="24" height="25" viewBox="0 0 24 25" fill="none" xmlns="http://www.w3.org/2000/svg">
<path d="M14 9.8V12.7H16.6C16.8 12.7 16.9 12.9 16.9 13.1L16.5 15C16.5 15.1 16.3 15.2 16.2 15.2H14V22.5H11V15.3H9.3C9.1 15.3 9 15.2 9 15V13.1C9 12.9 9.1 12.8 9.3 12.8H11V9.5C11 7.8 12.3 6.5 14 6.5H16.7C16.9 6.5 17 6.6 17 6.8V9.2C17 9.4 16.9 9.5 16.7 9.5H14.3C14.1 9.5 14 9.6 14 9.8Z" stroke="#17191C" stroke-width="1.5" stroke-miterlimit="10" stroke-linecap="round"/>
<path d="M15 22.5H9C4 22.5 2 20.5 2 15.5V9.5C2 4.5 4 2.5 9 2.5H15C20 2.5 22 4.5 22 9.5V15.5C22 20.5 20 22.5 15 22.5Z" stroke="#17191C" stroke-width="1.5" stroke-linecap="round" stroke-linejoin="round"/>
</svg>
