<svg width="97" height="16" viewBox="0 0 97 16" fill="none" xmlns="http://www.w3.org/2000/svg">
<path d="M7.5 0.5L10.0494 5.10228L15 6.22949L11.625 10.2011L12.1353 15.5L7.5 13.3523L2.86474 15.5L3.375 10.2011L0 6.22949L4.95061 5.10228L7.5 0.5Z" fill="#FFCB45"/>
<path d="M28 0.5L30.7193 5.10228L36 6.22949L32.4 10.2011L32.9443 15.5L28 13.3523L23.0557 15.5L23.6 10.2011L20 6.22949L25.2807 5.10228L28 0.5Z" fill="#FFCB45"/>
<path d="M48.5 0.5L51.0494 5.10228L56 6.22949L52.625 10.2011L53.1353 15.5L48.5 13.3523L43.8647 15.5L44.375 10.2011L41 6.22949L45.9506 5.10228L48.5 0.5Z" fill="#FFCB45"/>
<path d="M69 0.5L71.7193 5.10228L77 6.22949L73.4 10.2011L73.9443 15.5L69 13.3523L64.0557 15.5L64.6 10.2011L61 6.22949L66.2807 5.10228L69 0.5Z" fill="#FFCB45"/>
<path d="M89.5 0.5L92.0494 5.10228L97 6.22949L93.625 10.2011L94.1353 15.5L89.5 13.3523L84.8647 15.5L85.375 10.2011L82 6.22949L86.9506 5.10228L89.5 0.5Z" fill="#D9D9D9"/>
</svg>
