<svg width="17" height="16" viewBox="0 0 17 16" fill="none" xmlns="http://www.w3.org/2000/svg">
<g id="vuesax/bold/information">
<g id="information">
<path id="Vector" d="M13.8151 6.42676L13.815 6.42678L13.819 6.43147L14.7169 7.48224C14.7172 7.48261 14.7175 7.48299 14.7178 7.48337C14.9552 7.76627 14.9477 8.23856 14.7136 8.49946L14.7135 8.49936L14.7057 8.50853L13.8057 9.56187L13.8057 9.56184L13.8017 9.56658C13.6714 9.72297 13.5698 9.92141 13.5008 10.1089C13.4318 10.2962 13.3792 10.5165 13.3792 10.7267V11.86C13.3792 12.2905 13.023 12.6467 12.5925 12.6467H11.4592C11.249 12.6467 11.0287 12.6993 10.8414 12.7683C10.6539 12.8373 10.4555 12.9389 10.2991 13.0692L10.2991 13.0692L10.2944 13.0732L9.24103 13.9732L9.24089 13.9733C8.96798 14.2067 8.49035 14.2067 8.21744 13.9733L8.2173 13.9732L7.16397 13.0732L7.16399 13.0732L7.15926 13.0692C7.0016 12.9378 6.80052 12.8364 6.61357 12.768C6.42699 12.6997 6.20663 12.6467 5.99917 12.6467H4.83917C4.40864 12.6467 4.0525 12.2905 4.0525 11.86V10.72C4.0525 10.516 4.00277 10.2975 3.93587 10.1102C3.86971 9.92493 3.76915 9.72081 3.63259 9.56181C3.63213 9.56127 3.63167 9.56073 3.63121 9.5602L2.73365 8.50305L2.73292 8.50219C2.50849 8.23907 2.50193 7.7656 2.73586 7.48101L3.63365 6.42362L3.63366 6.42363L3.63661 6.42009C3.76877 6.2615 3.86872 6.06101 3.93558 5.87483C4.00252 5.68842 4.0525 5.47121 4.0525 5.26667V4.13333C4.0525 3.70281 4.40864 3.34667 4.83917 3.34667H5.9925C6.20264 3.34667 6.42296 3.29399 6.61023 3.22505C6.79776 3.15602 6.99619 3.05444 7.15259 2.92411L7.1526 2.92412L7.15494 2.92215L8.2216 2.02215L8.22161 2.02216L8.22411 2.02002C8.49702 1.78666 8.97465 1.78666 9.24756 2.02002L9.2477 2.02014L10.301 2.92014L10.301 2.92017L10.3057 2.92411C10.4635 3.05561 10.6648 3.15711 10.8531 3.22566C11.0414 3.29423 11.2629 3.34667 11.4725 3.34667H12.6058C13.0364 3.34667 13.3925 3.70281 13.3925 4.13333V5.26667C13.3925 5.47681 13.4452 5.69712 13.5141 5.8844C13.5832 6.07193 13.6847 6.27036 13.8151 6.42676ZM8.72583 4.42C8.17636 4.42 7.72583 4.87053 7.72583 5.42V8.64C7.72583 9.0156 7.93634 9.34496 8.24507 9.5158C7.83769 9.69931 7.55917 10.1092 7.55917 10.58C7.55917 11.2228 8.08302 11.7467 8.72583 11.7467C9.37857 11.7467 9.8925 11.2195 9.8925 10.58C9.8925 10.1079 9.60993 9.69995 9.20519 9.51658C9.51468 9.34597 9.72583 9.01617 9.72583 8.64V5.42C9.72583 4.87053 9.27531 4.42 8.72583 4.42Z" fill="white" stroke="white"/>
</g>
</g>
</svg>
