<svg width="25" height="24" viewBox="0 0 25 24" fill="none" xmlns="http://www.w3.org/2000/svg">
<g id="Vector">
<path id="Vector_2" d="M12.5 9.81815V14.4654H18.9582C18.6746 15.96 17.8236 17.2255 16.5472 18.0764L20.4417 21.0982C22.7108 19.0037 24.0199 15.9273 24.0199 12.2728C24.0199 11.4219 23.9436 10.6037 23.8017 9.81828L12.5 9.81815Z" fill="#4285F4"/>
<path id="Vector_3" d="M5.77461 14.284L4.89625 14.9564L1.78711 17.3782C3.76165 21.2945 7.80862 24 12.4995 24C15.7394 24 18.4557 22.9309 20.4412 21.0982L16.5467 18.0764C15.4776 18.7964 14.114 19.2328 12.4995 19.2328C9.37951 19.2328 6.72868 17.1273 5.77952 14.2909L5.77461 14.284Z" fill="#34A853"/>
<path id="Vector_4" d="M1.78718 6.62182C0.969042 8.2363 0.5 10.0581 0.5 11.9999C0.5 13.9417 0.969042 15.7636 1.78718 17.378C1.78718 17.3889 5.77997 14.2799 5.77997 14.2799C5.53998 13.5599 5.39812 12.7963 5.39812 11.9998C5.39812 11.2033 5.53998 10.4397 5.77997 9.71975L1.78718 6.62182Z" fill="#FBBC05"/>
<path id="Vector_5" d="M12.4997 4.77818C14.267 4.77818 15.8379 5.38907 17.0925 6.56727L20.5288 3.13095C18.4452 1.18917 15.7398 0 12.4997 0C7.80887 0 3.76165 2.69454 1.78711 6.62183L5.77978 9.72001C6.72882 6.88362 9.37976 4.77818 12.4997 4.77818Z" fill="#EA4335"/>
</g>
</svg>
