<svg width="23" height="24" viewBox="0 0 23 24" fill="none" xmlns="http://www.w3.org/2000/svg">
<g id="vuesax/outline/arrow-circle-right">
<g id="arrow-circle-right">
<path id="Vector" d="M11.8059 1.25C17.1621 1.25 21.5156 6.07 21.5156 12C21.5156 17.93 17.1621 22.75 11.8059 22.75C6.44982 22.75 2.09627 17.93 2.09627 12C2.09627 6.07 6.44982 1.25 11.8059 1.25ZM11.8059 21.25C16.4124 21.25 20.1608 17.1 20.1608 12C20.1608 6.9 16.4124 2.75 11.8059 2.75C7.1995 2.75 3.45111 6.9 3.45111 12C3.45111 17.1 7.1995 21.25 11.8059 21.25Z" fill="#ABABAB"/>
<path id="Vector_2" d="M12.942 7.72003C13.1136 7.72003 13.2853 7.79003 13.4207 7.94003C13.6827 8.23003 13.6827 8.71003 13.4207 9.00003L10.7111 12L13.4207 15C13.6827 15.29 13.6827 15.77 13.4207 16.06C13.1588 16.35 12.7253 16.35 12.4633 16.06L9.27493 12.53C9.01299 12.24 9.01299 11.76 9.27493 11.47L12.4633 7.94003C12.5988 7.79003 12.7704 7.72003 12.942 7.72003Z" fill="#ABABAB"/>
</g>
</g>
</svg>
