<svg width="24" height="24" viewBox="0 0 24 24" fill="none" xmlns="http://www.w3.org/2000/svg">
<g id="vuesax/outline/lock">
<g id="lock">
<path id="Vector" d="M18 10.25C17.8661 10.25 17.75 10.1339 17.75 10V8C17.75 6.40247 17.5304 4.93455 16.6437 3.8732C15.74 2.79134 14.2488 2.25 12 2.25C9.75122 2.25 8.26003 2.79134 7.35627 3.8732C6.46964 4.93455 6.25 6.40247 6.25 8V10C6.25 10.1339 6.13386 10.25 6 10.25C5.86614 10.25 5.75 10.1339 5.75 10V8C5.75 6.57122 5.92728 5.01738 6.76532 3.82501C7.57785 2.66893 9.08865 1.75 12 1.75C14.9113 1.75 16.4221 2.66893 17.2347 3.82501C18.0727 5.01738 18.25 6.57122 18.25 8V10C18.25 10.1339 18.1339 10.25 18 10.25Z" fill="#2A2A2A" stroke="#2A2A2A"/>
<path id="Vector_2" d="M12 18.75C10.4861 18.75 9.25 17.5139 9.25 16C9.25 14.4861 10.4861 13.25 12 13.25C13.5139 13.25 14.75 14.4861 14.75 16C14.75 17.5139 13.5139 18.75 12 18.75ZM12 13.75C10.7639 13.75 9.75 14.7639 9.75 16C9.75 17.2361 10.7639 18.25 12 18.25C13.2361 18.25 14.25 17.2361 14.25 16C14.25 14.7639 13.2361 13.75 12 13.75Z" fill="#292D32" stroke="#2A2A2A"/>
<path id="Vector_3" d="M17 22.75H7C2.59 22.75 1.25 21.41 1.25 17V15C1.25 10.59 2.59 9.25 7 9.25H17C21.41 9.25 22.75 10.59 22.75 15V17C22.75 21.41 21.41 22.75 17 22.75ZM7 10.75C3.42 10.75 2.75 11.43 2.75 15V17C2.75 20.57 3.42 21.25 7 21.25H17C20.58 21.25 21.25 20.57 21.25 17V15C21.25 11.43 20.58 10.75 17 10.75H7Z" fill="#292D32"/>
</g>
</g>
</svg>
