<svg width="83" height="83" viewBox="0 0 83 83" fill="none" xmlns="http://www.w3.org/2000/svg">
<g id="vuesax/bold/play-circle">
<g id="play-circle">
<path id="Vector" d="M42.0258 29.1355L42.0256 29.1354C39.3477 27.5947 36.1823 27.5929 33.5356 29.1369C30.892 30.6789 29.3104 33.4371 29.3104 36.4854V48.0708C29.3104 51.155 30.8931 53.878 33.5356 55.4194C34.8593 56.1916 36.2954 56.5596 37.7646 56.5596C39.1975 56.5596 40.6678 56.1924 41.9921 55.4203C41.9926 55.42 41.9931 55.4197 41.9936 55.4194L52.0202 49.6455C52.0202 49.6454 52.0203 49.6454 52.0203 49.6454C54.701 48.103 56.2825 45.3434 56.2825 42.2608C56.2825 39.1767 54.6998 36.4537 52.0574 34.9123L52.0549 34.9109L42.0258 29.1355ZM7.3125 41.5C7.3125 22.6861 22.582 7.41667 41.3958 7.41667C60.2439 7.41667 75.4792 22.6858 75.4792 41.5C75.4792 60.3139 60.2097 75.5833 41.3958 75.5833C22.582 75.5833 7.3125 60.3139 7.3125 41.5Z" fill="white" stroke="white"/>
</g>
</g>
</svg>
