<svg width="24" height="24" viewBox="0 0 24 24" fill="none" xmlns="http://www.w3.org/2000/svg">
<g id="vuesax/outline/play-circle">
<g id="play-circle">
<path id="Vector" d="M11.9688 22.25C6.32459 22.25 1.71875 17.6536 1.71875 12C1.71875 6.34645 6.32459 1.75 11.9688 1.75C17.6129 1.75 22.2188 6.34645 22.2188 12C22.2188 17.6539 17.6226 22.25 11.9688 22.25ZM11.9688 2.25C6.59261 2.25 2.21875 6.62386 2.21875 12C2.21875 17.3761 6.59261 21.75 11.9688 21.75C17.3449 21.75 21.7188 17.3761 21.7188 12C21.7188 6.62386 17.3449 2.25 11.9688 2.25Z" fill="#2A2A2A" stroke="#2A2A2A"/>
<path id="Vector_2" d="M12.1285 8.45315L12.1288 8.45329L15.0285 10.1232C16.0343 10.703 16.4983 11.4603 16.4983 12.23C16.4983 12.9906 16.0333 13.7575 15.0285 14.3368L12.1288 16.0067L12.1287 16.0066L12.1221 16.0106C11.5669 16.342 11.0244 16.49 10.5583 16.49C10.2035 16.49 9.86967 16.4018 9.57735 16.2364C8.91579 15.8506 8.48828 15.067 8.48828 13.91V10.56C8.48828 9.39798 8.90927 8.61615 9.56959 8.23225C10.2287 7.84904 11.1212 7.87234 12.1285 8.45315ZM11.8841 15.5854L11.8841 15.5854L11.8878 15.5833L14.7878 13.9133L14.7893 13.9124C15.4587 13.5237 16.0083 12.9429 16.0083 12.24C16.0083 11.5346 15.4447 10.9543 14.7924 10.5694L14.7924 10.5694L14.7878 10.5667L11.8916 8.89887C11.447 8.63282 10.9888 8.46999 10.5583 8.46999C10.3132 8.46999 10.0487 8.52299 9.82214 8.66055C9.20914 9.01933 8.98828 9.78674 8.98828 10.56V13.91C8.98828 14.6664 9.20599 15.4543 9.82954 15.8038C10.4415 16.1627 11.2286 15.9554 11.8841 15.5854Z" fill="#292D32" stroke="#2A2A2A"/>
</g>
</g>
</svg>
