<svg width="195" height="196" viewBox="0 0 195 196" fill="none" xmlns="http://www.w3.org/2000/svg">
<g id="emojione:books" clip-path="url(#clip0_2511_121269)">
<path id="Vector" d="M167.274 121.581L189.516 144.856L91.7117 194.162C91.7117 194.162 78.9148 200.594 72.8211 190.487C48.4461 150.675 167.274 121.581 167.274 121.581Z" fill="#256382"/>
<path id="Vector_2" d="M88.9688 165.069C88.9688 165.069 70.3828 172.113 73.7344 185.281C77.3907 199.063 92.3203 190.794 92.3203 190.794L185.25 144.856C185.25 144.856 180.07 130.156 189.516 120.356L88.9688 165.069Z" fill="#D9E3E8"/>
<path id="Vector_3" d="M104.813 27.2563L193.781 119.438L88.6641 163.231L21.3281 51.1438L104.813 27.2563Z" fill="#42ADE2"/>
<path id="Vector_4" d="M184.945 130.462L122.789 157.412L183.727 127.706L184.945 130.462ZM184.031 138.425L117.914 167.519L182.812 135.669L184.031 138.425ZM184.641 143.019L100.242 181.912L183.422 140.262L184.641 143.019Z" fill="#94989B"/>
<path id="Vector_5" d="M72.5156 190.181C62.1562 167.212 88.6641 163.231 88.6641 163.231L21.3281 51.1437C21.3281 51.1437 6.09375 50.8375 6.09375 67.6812C6.09375 74.725 9.14062 79.9312 9.14062 79.9312L72.5156 190.181Z" fill="#428BC1"/>
<path id="Vector_6" d="M26.5078 98.6125L4.26562 121.887L102.07 171.194C102.07 171.194 114.867 177.625 120.961 167.519C145.336 127.706 26.5078 98.6125 26.5078 98.6125Z" fill="#547725"/>
<path id="Vector_7" d="M104.508 142.1C104.508 142.1 123.094 149.144 119.742 162.313C116.086 176.094 101.461 167.825 101.461 167.825L8.53125 121.888C8.53125 121.888 13.7109 107.188 4.26562 97.3875L104.508 142.1Z" fill="#D9E3E8"/>
<path id="Vector_8" d="M88.9688 4.28751L0 96.4688L105.117 140.262L172.453 28.175L88.9688 4.28751Z" fill="#83BF4F"/>
<path id="Vector_9" d="M9.75 104.737L70.6875 134.444L8.53125 107.494L9.75 104.737ZM10.9687 112.7L75.5625 144.55L9.44531 115.456L10.9687 112.7ZM10.3594 117.294L93.2344 158.944L8.83594 120.05L10.3594 117.294Z" fill="#94989B"/>
<path id="Vector_10" d="M121.266 167.212C131.625 144.244 105.117 140.262 105.117 140.262L172.453 28.175C172.453 28.175 187.687 27.8688 187.687 44.7125C187.687 51.7562 184.641 56.9625 184.641 56.9625L121.266 167.212Z" fill="#699635"/>
<path id="Vector_11" d="M172.758 79.625L191.344 99.225L108.774 140.569C108.774 140.569 97.8049 145.775 92.6252 137.506C72.5158 104.125 172.758 79.625 172.758 79.625Z" fill="#962C2C"/>
<path id="Vector_12" d="M106.641 116.375C106.641 116.375 90.7974 122.194 93.8443 133.525C96.8911 145.162 109.383 138.119 109.383 138.119L187.688 99.225C187.688 99.225 183.422 86.975 191.344 78.7062L106.641 116.375Z" fill="#D9E3E8"/>
<path id="Vector_13" d="M120.047 0L195 77.7875L106.336 114.844L49.3594 20.2125L120.047 0Z" fill="#ED4C5C"/>
<path id="Vector_14" d="M122.18 17.7625L136.805 33.9938L82.875 54.5125L70.0781 33.6875L122.18 17.7625Z" fill="white"/>
<path id="Vector_15" d="M187.687 87.2812L135.281 109.637L186.469 84.525L187.687 87.2812ZM187.078 94.0187L131.016 118.212L185.859 91.2625L187.078 94.0187ZM187.687 97.6937L116.391 130.462L186.164 94.9375L187.687 97.6937Z" fill="#94989B"/>
<path id="Vector_16" d="M92.9297 137.506C84.3984 118.213 106.641 114.844 106.641 114.844L49.3594 20.2125C49.3594 20.2125 36.2578 19.9063 36.2578 33.9938C36.2578 39.8125 38.6953 44.4063 38.6953 44.4063L92.9297 137.506Z" fill="#C94747"/>
</g>
<defs>
<clipPath id="clip0_2511_121269">
<rect width="195" height="196" fill="white"/>
</clipPath>
</defs>
</svg>
