<svg width="22" height="24" viewBox="0 0 22 24" fill="none" xmlns="http://www.w3.org/2000/svg">
<g id="vuesax/outline/arrow-circle-right">
<g id="arrow-circle-right">
<path id="Vector" d="M11.1628 22.75C5.80667 22.75 1.45312 17.93 1.45312 12C1.45312 6.07 5.80667 1.25 11.1628 1.25C16.5189 1.25 20.8725 6.07 20.8725 12C20.8725 17.93 16.5189 22.75 11.1628 22.75ZM11.1628 2.75C6.55635 2.75 2.80796 6.9 2.80796 12C2.80796 17.1 6.55635 21.25 11.1628 21.25C15.7693 21.25 19.5176 17.1 19.5176 12C19.5176 6.9 15.7693 2.75 11.1628 2.75Z" fill="#2A2A2A"/>
<path id="Vector_2" d="M10.0267 16.28C9.85511 16.28 9.6835 16.21 9.54801 16.06C9.28608 15.77 9.28608 15.29 9.54801 15L12.2577 12L9.54801 8.99997C9.28608 8.70997 9.28608 8.22997 9.54801 7.93997C9.80995 7.64997 10.2435 7.64997 10.5054 7.93997L13.6938 11.47C13.9558 11.76 13.9558 12.24 13.6938 12.53L10.5054 16.06C10.3699 16.21 10.1983 16.28 10.0267 16.28Z" fill="#292D32"/>
</g>
</g>
</svg>
