<svg width="24" height="25" viewBox="0 0 24 25" fill="none" xmlns="http://www.w3.org/2000/svg">
<path d="M18.4698 17.33L18.8598 20.49C18.9598 21.32 18.0698 21.9 17.3598 21.47L13.1698 18.98C12.7098 18.98 12.2599 18.95 11.8199 18.89C12.5599 18.02 12.9998 16.92 12.9998 15.73C12.9998 12.89 10.5398 10.59 7.49985 10.59C6.33985 10.59 5.26985 10.92 4.37985 11.5C4.34985 11.25 4.33984 11 4.33984 10.74C4.33984 6.18999 8.28985 2.5 13.1698 2.5C18.0498 2.5 21.9998 6.18999 21.9998 10.74C21.9998 13.44 20.6098 15.83 18.4698 17.33Z" stroke="#008080" stroke-width="1.5" stroke-linecap="round" stroke-linejoin="round"/>
<path d="M13 15.7298C13 16.9198 12.56 18.0198 11.82 18.8898C10.83 20.0898 9.26 20.8598 7.5 20.8598L4.89 22.4098C4.45 22.6798 3.89 22.3098 3.95 21.7998L4.2 19.8298C2.86 18.8998 2 17.4098 2 15.7298C2 13.9698 2.94 12.4198 4.38 11.4998C5.27 10.9198 6.34 10.5898 7.5 10.5898C10.54 10.5898 13 12.8898 13 15.7298Z" stroke="#008080" stroke-width="1.5" stroke-linecap="round" stroke-linejoin="round"/>
</svg>
